Coordinates
version=1
nRows=8
nColumns=40
inDegrees=yes

Units are S.I. units (second, meters, Newtons, ...)
Angles are in degrees.

endheader
time	pelvis_tilt	pelvis_list	pelvis_rotation	pelvis_tx	pelvis_ty	pelvis_tz	hip_flexion_r	hip_adduction_r	hip_rotation_r	knee_angle_r	knee_angle_r_beta	ankle_angle_r	subtalar_angle_r	mtp_angle_r	hip_flexion_l	hip_adduction_l	hip_rotation_l	knee_angle_l	knee_angle_l_beta	ankle_angle_l	subtalar_angle_l	mtp_angle_l	lumbar_extension	lumbar_bending	lumbar_rotation	arm_flex_r	arm_add_r	arm_rot_r	elbow_flex_r	pro_sup_r	wrist_flex_r	wrist_dev_r	arm_flex_l	arm_add_l	arm_rot_l	elbow_flex_l	pro_sup_l	wrist_flex_l	wrist_dev_l
     49.10500000	     -2.67355897	     -4.19580795	      8.32651176	      1.07452412	      0.93153484	      0.49913648	      7.66207531	      2.51475625	    -16.14552425	     15.63631647	     15.63631647	     12.02400606	     -5.00005785	     -5.59718499	     32.97458595	    -11.96246619	      0.35196341	     53.98514194	     53.98514194	      9.67256508	    -18.64806212	     14.41983560	     -9.74845642	      6.32509999	      2.39246529	     11.27664326	    -20.24639557	      4.95679021	     66.00340784	     44.79970456	      0.00000000	      0.00000000	      0.55170050	    -10.37207761	    -11.91377078	     37.01850394	     46.58736808	      0.00000000	      0.00000000
     49.11885714	     -2.89724007	     -3.75482616	      8.81125777	      1.07291362	      0.93189308	      0.49876241	      7.18230561	      2.08346993	    -16.68471939	     14.94628535	     14.94628535	     11.94643259	     -4.59393389	     -5.63850188	     33.22015190	    -11.02745882	      0.07921850	     50.48182100	     50.48182100	      9.66414620	    -18.69983672	     13.76827292	     -9.95160040	      5.87335431	      2.48517808	     10.91455582	    -20.59596514	      5.47012058	     69.60794671	     44.68843640	      0.00000000	      0.00000000	      1.40502416	    -10.27076986	    -12.14388245	     35.48578424	     46.60710935	      0.00000000	      0.00000000
     49.13271429	     -3.15997823	     -3.60218255	      9.26593427	      1.07126103	      0.93174819	      0.49845003	      6.99850234	      1.94958233	    -16.95387880	     14.65917915	     14.65917915	     12.04564142	     -4.73078021	     -5.60564960	     33.56964112	    -10.29261720	      0.20113285	     46.96504498	     46.96504498	     10.02210429	    -18.38472200	     13.80877005	     -9.95666889	      5.69270764	      2.44435268	     11.50999564	    -20.25916022	      5.45742135	     70.39412410	     44.67053373	      0.00000000	      0.00000000	      1.57541298	    -10.31013748	    -12.14009141	     35.32387268	     46.60596816	      0.00000000	      0.00000000
     49.14657143	     -3.39765245	     -3.47326121	      9.66838915	      1.06964212	      0.93157042	      0.49800662	      6.79636849	      1.81961387	    -17.26743314	     14.39633460	     14.39633460	     12.14741686	     -4.71275438	     -5.60931847	     33.72456093	     -9.55161166	      0.45894993	     43.21448440	     43.21448440	     10.22636998	    -17.84936577	     13.59604420	    -10.00722000	      5.55756695	      2.37189950	     12.10963410	    -19.93245962	      5.55285173	     71.51129169	     44.63863201	      0.00000000	      0.00000000	      1.73304925	    -10.36793427	    -12.15176375	     35.08742723	     46.60598003	      0.00000000	      0.00000000
     49.16042857	     -3.65381770	     -3.33003334	     10.03989038	      1.06807708	      0.93132222	      0.49744365	      6.60690178	      1.65981115	    -17.58432158	     14.13445342	     14.13445342	     12.27639964	     -4.60318371	     -5.63375338	     33.73489932	     -8.81572421	      0.75161905	     39.30138399	     39.30138399	     10.26854743	    -16.90559485	     13.15806069	    -10.03456025	      5.41022636	      2.33072073	     12.70198608	    -19.65613290	      5.74317926	     72.81295648	     44.59799840	      0.00000000	      0.00000000	      1.90426065	    -10.37620029	    -12.16833611	     34.85008267	     46.60637222	      0.00000000	      0.00000000
     49.17428571	     -3.94240073	     -3.37945717	     10.35999485	      1.06660125	      0.93077128	      0.49685670	      6.52356901	      1.68715727	    -17.91920830	     13.96008144	     13.96008144	     12.41594618	     -4.54261656	     -5.68140807	     33.78362826	     -8.30762590	      1.15456358	     35.49018939	     35.49018939	     10.42020538	    -15.52352954	     12.81574496	     -9.95818288	      5.44371179	      2.39927699	     13.36426176	    -19.45388381	      5.91396919	     73.90319743	     44.56374510	      0.00000000	      0.00000000	      2.09978465	    -10.30571895	    -12.16802683	     34.73918274	     46.60618309	      0.00000000	      0.00000000
     49.18814286	     -4.02932133	     -3.42297392	     10.60092712	      1.06548417	      0.93037844	      0.49618224	      6.18181463	      1.71285216	    -18.41120825	     13.78120616	     13.78120616	     12.73550267	     -3.92661682	     -5.65060181	     33.23993081	     -7.94475539	      1.34529560	     31.17558770	     31.17558770	      8.42932904	    -14.41257774	      7.58411095	    -10.17178417	      5.56358437	      2.85244416	     13.32922409	    -19.91051980	      6.61775943	     77.12804238	     44.49742879	      0.00000000	      0.00000000	      2.72939556	    -10.15652490	    -12.44673702	     34.01350582	     46.61458114	      0.00000000	      0.00000000
     49.20200000	     -4.25731940	     -3.46608018	     10.77007544	      1.06440001	      0.92982248	      0.49555450	      5.98361468	      1.77099828	    -18.55807731	     13.53954551	     13.53954551	     12.87098964	     -3.87283395	     -5.68685743	     33.02269358	     -7.60312572	      1.48874359	     27.60378199	     27.60378199	      8.46234995	    -12.39577332	      7.83500510	    -10.11173365	      5.56443584	      2.85608924	     14.18596654	    -19.38402910	      6.68348724	     77.95986619	     44.47918972	      0.00000000	      0.00000000	      2.74627052	    -10.22830347	    -12.43443568	     33.96558604	     46.60928799	      0.00000000	      0.00000000
